<!DOCTYPE svg PUBLIC "-//W3C//DTD SVG 20010904//EN" "http://www.w3.org/TR/2001/REC-SVG-20010904/DTD/svg10.dtd">
<svg version="1.0" xmlns="http://www.w3.org/2000/svg" width="800px" height="400px" viewBox="0 0 8000 4000" preserveAspectRatio="xMidYMid meet">
<g id="layer101" fill="#01abd7" stroke="none">
 <path d="M5240 2895 c-277 -44 -509 -209 -615 -440 -18 -38 -37 -81 -42 -94 -9 -23 -10 -22 -40 30 -110 194 -297 360 -498 440 -132 53 -248 72 -405 67 -119 -4 -146 -9 -230 -37 -255 -86 -446 -282 -513 -526 -28 -103 -34 -289 -12 -396 66 -330 314 -625 635 -756 182 -75 423 -99 585 -59 210 51 396 197 495 388 48 91 54 83 -95 121 -55 15 -151 40 -213 56 l-113 30 -60 -55 c-131 -120 -287 -142 -452 -64 -120 57 -225 168 -269 285 -19 50 -23 79 -23 180 0 111 2 124 28 177 36 74 107 144 177 177 49 23 67 26 170 26 111 0 117 -1 183 -34 49 -25 87 -55 138 -109 38 -41 69 -78 69 -83 0 -4 -108 -9 -240 -11 -261 -3 -267 -5 -254 -58 12 -52 132 -288 152 -299 14 -7 146 -11 406 -11 332 0 386 -2 386 -15 0 -34 115 -236 181 -318 198 -245 495 -379 839 -379 240 0 432 79 595 246 120 123 183 259 206 448 34 280 -62 548 -273 760 -181 183 -401 288 -663 318 -109 12 -127 12 -235 -5z m305 -450 c88 -23 173 -73 246 -145 108 -106 154 -222 147 -369 -3 -70 -10 -99 -35 -153 -63 -134 -175 -208 -323 -216 -244 -12 -449 134 -521 371 -29 95 -24 220 12 297 83 176 280 265 474 215z"/>
 <path d="M2172 2040 l23 -40 254 0 254 0 -7 31 c-3 17 -6 35 -6 40 0 5 -122 9 -270 9 l-271 0 23 -40z"/>
 <path d="M1590 1861 c0 -7 12 -28 28 -47 l27 -34 553 0 c303 0 552 2 552 5 0 3 -7 21 -14 40 l-15 35 -198 0 c-109 0 -363 3 -565 7 -286 5 -368 4 -368 -6z"/>
 <path d="M1946 1638 c4 -7 19 -28 32 -45 l24 -33 429 0 c313 0 429 3 429 11 0 7 -9 27 -21 45 l-21 34 -439 0 c-349 0 -439 -3 -433 -12z"/>
 </g>

</svg>