<!DOCTYPE svg PUBLIC "-//W3C//DTD SVG 20010904//EN" "http://www.w3.org/TR/2001/REC-SVG-20010904/DTD/svg10.dtd">
<svg version="1.0" xmlns="http://www.w3.org/2000/svg" width="350px" height="350px" viewBox="0 0 3500 3500" preserveAspectRatio="xMidYMid meet">
<g id="layer101" fill="#000000" stroke="none">
 <path d="M1570 2760 c-70 -16 -157 -30 -184 -30 -15 0 -35 -4 -44 -9 -10 -5 -49 -14 -87 -20 -39 -6 -99 -15 -135 -21 -36 -6 -90 -15 -120 -20 -30 -5 -75 -13 -100 -18 -25 -6 -76 -15 -115 -21 -38 -7 -95 -16 -125 -21 -30 -5 -71 -12 -91 -15 l-36 -5 -7 -63 c-17 -175 -27 -272 -36 -367 -5 -58 -13 -122 -16 -142 l-7 -38 220 0 220 0 11 83 c7 45 12 101 12 123 0 23 3 56 6 73 6 27 11 31 38 31 17 1 60 7 96 15 36 8 77 14 93 15 l27 0 0 -655 0 -655 -249 0 c-230 0 -250 -1 -255 -18 -3 -10 -11 -69 -16 -132 -6 -63 -13 -143 -17 -177 l-6 -63 492 0 491 0 0 1080 c0 858 -3 1080 -12 1079 -7 -1 -29 -5 -48 -9z"/>
 </g>
<g id="layer102" fill="#4d4d4d" stroke="none">
 <path d="M1860 2566 l0 -204 53 -6 c81 -10 212 -31 393 -63 l102 -18 6 -44 c3 -24 6 -62 6 -85 0 -23 6 -79 14 -126 8 -47 17 -120 19 -162 l5 -78 -299 0 -299 0 0 -585 0 -585 578 0 578 0 -7 82 c-4 46 -12 112 -18 148 -6 36 -11 86 -11 113 l0 47 -330 0 -330 0 0 195 0 195 311 0 311 0 -7 53 c-3 28 -10 84 -15 122 -5 39 -14 124 -20 190 -20 226 -31 330 -45 450 -8 66 -17 149 -20 185 -16 188 -17 190 -39 194 -11 3 -50 10 -86 16 -36 6 -83 15 -105 20 -22 5 -58 12 -80 15 -22 3 -51 10 -65 14 -14 5 -56 14 -95 21 -78 13 -141 25 -230 45 -33 8 -91 19 -130 26 -38 6 -83 15 -99 20 -16 5 -33 9 -37 9 -5 0 -9 -92 -9 -204z"/>
 </g>
<g id="layer103" fill="#d4b830" stroke="none">
 <path d="M1700 3485 c-19 -7 -80 -23 -135 -35 -55 -12 -113 -26 -130 -32 -16 -5 -41 -12 -55 -15 -46 -8 -194 -44 -245 -58 -27 -8 -93 -24 -145 -36 -52 -11 -115 -27 -140 -34 -25 -7 -88 -23 -140 -34 -52 -12 -117 -28 -145 -36 -27 -7 -75 -19 -105 -25 -30 -7 -65 -16 -78 -21 -13 -5 -34 -9 -47 -9 -26 0 -23 16 -45 -220 -6 -63 -17 -176 -26 -250 -17 -163 -30 -285 -44 -445 -6 -66 -17 -174 -25 -240 -8 -66 -19 -174 -25 -240 -18 -195 -30 -322 -45 -455 -8 -69 -19 -174 -24 -235 -23 -240 -32 -336 -47 -465 -8 -74 -19 -178 -24 -230 -5 -52 -14 -140 -20 -195 -5 -55 -10 -117 -10 -137 l0 -38 1745 0 c1573 0 1745 2 1745 16 0 8 -4 45 -10 82 -5 37 -14 121 -20 187 -16 184 -29 318 -45 455 -8 69 -19 179 -25 245 -16 182 -29 311 -41 405 -6 47 -15 132 -20 190 -5 58 -14 150 -19 205 -5 55 -14 152 -19 215 -6 63 -15 139 -21 169 -5 29 -10 76 -10 103 0 27 -4 79 -10 116 -5 37 -14 121 -20 187 -6 66 -17 172 -25 235 -8 63 -15 132 -15 152 0 20 -5 70 -11 111 l-11 73 -61 13 c-34 7 -72 17 -85 22 -13 5 -34 9 -47 9 -14 0 -42 6 -62 14 -21 7 -83 24 -138 36 -55 12 -118 28 -140 36 -23 8 -50 14 -62 14 -12 0 -32 4 -45 9 -13 5 -50 14 -83 21 -33 7 -78 18 -100 25 -22 7 -67 18 -100 25 -33 7 -94 22 -135 32 -122 31 -232 58 -283 68 -26 5 -56 14 -67 20 -10 5 -20 10 -22 9 -2 -1 -19 -7 -38 -14z m121 -279 c24 -7 89 -24 144 -36 55 -12 111 -26 125 -31 22 -7 53 -14 210 -50 25 -6 68 -17 95 -24 51 -15 200 -50 245 -58 14 -3 39 -10 55 -15 17 -6 55 -16 85 -22 119 -25 118 -24 124 -88 4 -31 13 -120 21 -197 9 -77 20 -183 25 -235 5 -52 14 -140 20 -195 5 -55 10 -117 10 -138 0 -21 7 -82 14 -135 8 -53 20 -153 26 -222 13 -158 26 -290 45 -455 8 -71 19 -181 25 -242 24 -269 32 -342 41 -408 5 -38 13 -117 19 -175 5 -58 13 -133 16 -167 l7 -63 -712 0 -711 0 0 1485 c0 1224 2 1485 13 1485 7 0 33 -6 58 -14z m-191 -1516 l0 -1080 -491 0 -492 0 6 63 c4 34 11 114 17 177 5 63 13 122 16 132 5 17 25 18 255 18 l249 0 0 655 0 655 -27 0 c-16 -1 -57 -7 -93 -15 -36 -8 -79 -14 -96 -15 -27 0 -32 -4 -38 -31 -3 -17 -6 -50 -6 -73 0 -22 -5 -78 -12 -123 l-11 -83 -220 0 -220 0 7 38 c3 20 11 84 16 142 9 95 19 192 36 367 l7 63 36 5 c20 3 61 10 91 15 30 5 87 14 125 21 39 6 90 15 115 21 25 5 70 13 100 18 30 5 84 14 120 20 36 6 96 15 135 21 38 6 77 15 87 20 9 5 29 9 44 9 27 0 114 14 184 30 19 4 41 8 48 9 9 1 12 -221 12 -1079z"/>
 </g>
<g id="layer104" fill="#fdd83c" stroke="none">
 <path d="M1750 1735 l0 -1485 711 0 712 0 -7 63 c-3 34 -11 109 -16 167 -6 58 -14 137 -19 175 -9 66 -17 139 -41 408 -6 61 -17 171 -25 242 -19 165 -32 297 -45 455 -6 69 -18 169 -26 222 -7 53 -14 114 -14 135 0 21 -5 83 -10 138 -6 55 -15 143 -20 195 -5 52 -16 158 -25 235 -8 77 -17 166 -21 197 -6 64 -5 63 -124 88 -30 6 -68 16 -85 22 -16 5 -41 12 -55 15 -45 8 -194 43 -245 58 -27 7 -70 18 -95 24 -157 36 -188 43 -210 50 -14 5 -70 19 -125 31 -55 12 -120 29 -144 36 -25 8 -51 14 -58 14 -11 0 -13 -261 -13 -1485z m156 1026 c16 -5 61 -14 99 -20 39 -7 97 -18 130 -26 89 -20 152 -32 230 -45 39 -7 81 -16 95 -21 14 -4 43 -11 65 -14 33 -6 183 -33 271 -51 22 -4 23 -6 39 -194 3 -36 12 -119 20 -185 14 -120 25 -224 45 -450 6 -66 15 -151 20 -190 5 -38 12 -94 15 -122 l7 -53 -311 0 -311 0 0 -195 0 -195 330 0 330 0 0 -47 c0 -27 5 -77 11 -113 6 -36 14 -102 18 -148 l7 -82 -578 0 -578 0 0 585 0 585 299 0 299 0 -5 78 c-2 42 -11 115 -19 162 -8 47 -14 103 -14 126 0 23 -3 61 -6 85 l-6 44 -102 18 c-55 10 -130 23 -166 28 -36 6 -87 14 -115 19 -27 5 -76 12 -107 15 l-58 6 0 205 c0 112 4 204 9 204 4 0 21 -4 37 -9z"/>
 </g>

</svg>