<!DOCTYPE svg PUBLIC "-//W3C//DTD SVG 20010904//EN" "http://www.w3.org/TR/2001/REC-SVG-20010904/DTD/svg10.dtd">
<svg version="1.0" xmlns="http://www.w3.org/2000/svg" width="1200px" height="734px" viewBox="0 0 12000 7340" preserveAspectRatio="xMidYMid meet" shape-rendering="auto">
<g id="layer101" fill="#333333" stroke="none" shape-rendering="auto">
 <path d="M5820 7323 c-130 -69 -400 -238 -400 -250 0 -8 19 -22 43 -31 23 -9 66 -29 96 -44 29 -15 57 -28 62 -28 5 0 73 38 152 85 79 47 149 85 157 85 7 0 260 -142 561 -316 l549 -317 0 -637 c0 -594 -1 -638 -17 -652 -25 -21 -1081 -628 -1093 -628 -12 0 -1068 607 -1092 628 -17 14 -18 58 -18 652 l0 637 168 96 c92 53 186 101 210 107 73 19 136 -10 171 -77 8 -15 11 -207 11 -660 0 -484 3 -642 12 -651 18 -18 172 -16 187 2 9 10 11 190 9 693 l-3 680 -35 69 c-27 53 -46 76 -84 101 -67 45 -114 56 -231 51 -117 -5 -145 -16 -375 -147 -160 -92 -191 -117 -223 -176 -22 -40 -22 -42 -22 -730 0 -687 0 -690 22 -730 11 -22 32 -50 45 -62 25 -24 1102 -647 1158 -671 44 -18 136 -18 180 1 47 19 1107 632 1146 662 18 14 43 46 55 72 l24 48 0 680 0 681 -25 48 c-14 27 -41 61 -60 76 -19 16 -282 171 -585 346 l-550 318 -85 4 c-68 2 -92 0 -120 -15z" shape-rendering="auto"/>
 <path d="M6105 6479 c-265 -35 -424 -179 -413 -372 l3 -52 97 -3 97 -3 11 43 c36 141 101 182 305 194 183 11 314 -22 355 -89 19 -31 26 -90 14 -121 -18 -46 -113 -74 -364 -106 -197 -25 -266 -42 -343 -83 -75 -39 -111 -84 -133 -163 -31 -117 -1 -237 79 -317 108 -108 351 -154 593 -112 208 36 325 142 352 317 13 84 8 88 -102 88 l-93 0 -22 -59 c-22 -60 -56 -103 -102 -126 -75 -39 -310 -45 -397 -10 -60 24 -92 66 -92 120 0 35 5 48 26 64 37 29 70 37 314 76 228 36 297 53 371 90 56 29 112 90 130 141 19 56 17 179 -4 241 -37 106 -144 189 -292 228 -73 19 -293 27 -390 14z" shape-rendering="auto"/>
 <path d="M7558 5381 c-95 -31 -153 -109 -153 -206 1 -135 105 -227 238 -212 163 20 241 210 140 345 -44 59 -155 95 -225 73z m131 -56 c116 -60 127 -218 20 -289 -67 -43 -140 -39 -199 10 -89 76 -80 204 19 271 40 27 116 31 160 8z" shape-rendering="auto"/>
 <path d="M7530 5175 l0 -125 61 0 c33 0 69 5 80 11 31 16 42 56 26 89 -8 15 -11 34 -7 41 4 8 11 35 14 62 l7 47 -30 0 c-28 0 -31 -3 -31 -31 0 -41 -16 -69 -40 -69 -17 0 -20 7 -20 50 0 49 -1 50 -30 50 l-30 0 0 -125z m115 -50 c0 -14 -8 -21 -27 -23 -24 -3 -28 0 -28 23 0 23 4 26 28 23 19 -2 27 -9 27 -23z" shape-rendering="auto"/>
 <path d="M7500 4607 c-31 -16 -911 -524 -1072 -619 -81 -47 -123 -78 -133 -98 -13 -25 -15 -126 -15 -738 l0 -709 23 -33 c17 -25 158 -111 620 -377 558 -322 601 -345 646 -345 42 0 67 11 205 91 86 50 165 91 175 91 42 0 41 14 41 -918 0 -654 3 -899 11 -915 36 -67 58 -59 441 154 189 106 353 198 365 206 56 37 53 -69 53 1768 0 1821 3 1712 -52 1761 -18 16 -1082 634 -1175 683 -29 15 -102 14 -133 -2z m262 -1078 c106 -62 201 -119 211 -127 16 -14 17 -36 15 -255 l-3 -239 -205 -119 c-113 -65 -209 -119 -215 -119 -5 0 -102 54 -215 119 l-205 119 -3 239 c-2 219 -1 241 15 255 15 12 403 238 410 238 1 0 88 -50 195 -111z" shape-rendering="auto"/>
 <path d="M4380 4589 c-14 -5 -288 -162 -609 -347 -411 -237 -589 -346 -605 -367 -21 -30 -21 -30 -21 -740 0 -710 0 -710 21 -740 16 -21 195 -130 606 -367 322 -185 598 -342 614 -348 16 -6 44 -8 63 -5 43 8 1185 666 1226 706 l30 29 3 721 2 721 -37 37 c-56 54 -1184 702 -1231 707 -20 2 -48 -1 -62 -7z" shape-rendering="auto"/>
 <path d="M10134 4289 c-291 -165 -560 -320 -598 -342 -123 -74 -111 11 -111 -812 0 -707 0 -714 21 -742 13 -18 229 -148 615 -372 532 -308 599 -344 646 -349 l52 -4 589 341 c324 188 602 355 618 372 l29 30 3 206 c3 217 -1 244 -41 281 -39 35 -733 432 -756 432 -12 0 -33 -11 -46 -25 -25 -24 -25 -26 -25 -208 0 -162 -2 -187 -17 -205 -26 -30 -381 -232 -408 -232 -26 0 -382 202 -407 232 -16 18 -18 45 -18 242 0 173 3 226 14 241 7 10 280 172 607 359 498 286 594 345 602 368 19 60 6 69 -383 285 -325 181 -370 203 -411 203 -41 0 -93 -27 -575 -301z" shape-rendering="auto"/>
 <path d="M26 4289 l-26 -20 0 -932 c0 -890 1 -933 19 -962 14 -23 160 -112 617 -374 640 -368 646 -371 715 -336 99 51 1167 670 1187 688 12 11 27 37 33 56 6 24 9 343 7 949 l-3 914 -24 19 c-13 10 -33 19 -44 19 -36 0 -746 -410 -771 -445 -21 -29 -21 -39 -26 -495 -5 -420 -7 -469 -22 -492 -11 -16 -88 -67 -195 -128 -154 -88 -183 -101 -214 -97 -36 5 -324 162 -367 201 -47 42 -47 39 -52 528 l-5 466 -24 26 c-31 33 -732 436 -759 436 -10 0 -31 -9 -46 -21z" shape-rendering="auto"/>
 <path d="M10685 3404 c-17 -8 -74 -41 -127 -72 l-98 -56 0 -147 0 -147 126 -72 c122 -70 127 -72 153 -58 14 8 70 41 124 72 l97 57 0 149 0 149 -67 39 c-182 106 -176 103 -208 86z" shape-rendering="auto"/>
 </g>
<g id="layer102" fill="#3e863d" stroke="none">
 <path d="M5820 7323 c-130 -69 -400 -238 -400 -250 0 -8 19 -22 43 -31 23 -9 66 -29 96 -44 29 -15 57 -28 62 -28 5 0 73 38 152 85 79 47 149 85 157 85 7 0 260 -142 561 -316 l549 -317 0 -637 c0 -594 -1 -638 -17 -652 -25 -21 -1081 -628 -1093 -628 -12 0 -1068 607 -1092 628 -17 14 -18 58 -18 652 l0 637 168 96 c92 53 186 101 210 107 73 19 136 -10 171 -77 8 -15 11 -207 11 -660 0 -484 3 -642 12 -651 18 -18 172 -16 187 2 9 10 11 190 9 693 l-3 680 -35 69 c-27 53 -46 76 -84 101 -67 45 -114 56 -231 51 -117 -5 -145 -16 -375 -147 -160 -92 -191 -117 -223 -176 -22 -40 -22 -42 -22 -730 0 -687 0 -690 22 -730 11 -22 32 -50 45 -62 25 -24 1102 -647 1158 -671 44 -18 136 -18 180 1 47 19 1107 632 1146 662 18 14 43 46 55 72 l24 48 0 680 0 681 -25 48 c-14 27 -41 61 -60 76 -19 16 -282 171 -585 346 l-550 318 -85 4 c-68 2 -92 0 -120 -15z" shape-rendering="auto"/>
 <path d="M6105 6479 c-265 -35 -424 -179 -413 -372 l3 -52 97 -3 97 -3 11 43 c36 141 101 182 305 194 183 11 314 -22 355 -89 19 -31 26 -90 14 -121 -18 -46 -113 -74 -364 -106 -197 -25 -266 -42 -343 -83 -75 -39 -111 -84 -133 -163 -31 -117 -1 -237 79 -317 108 -108 351 -154 593 -112 208 36 325 142 352 317 13 84 8 88 -102 88 l-93 0 -22 -59 c-22 -60 -56 -103 -102 -126 -75 -39 -310 -45 -397 -10 -60 24 -92 66 -92 120 0 35 5 48 26 64 37 29 70 37 314 76 228 36 297 53 371 90 56 29 112 90 130 141 19 56 17 179 -4 241 -37 106 -144 189 -292 228 -73 19 -293 27 -390 14z" shape-rendering="auto" />
 <path d="M7558 5381 c-95 -31 -153 -109 -153 -206 1 -135 105 -227 238 -212 163 20 241 210 140 345 -44 59 -155 95 -225 73z m131 -56 c116 -60 127 -218 20 -289 -67 -43 -140 -39 -199 10 -89 76 -80 204 19 271 40 27 116 31 160 8z" shape-rendering="auto"/>
 <path d="M7530 5175 l0 -125 61 0 c33 0 69 5 80 11 31 16 42 56 26 89 -8 15 -11 34 -7 41 4 8 11 35 14 62 l7 47 -30 0 c-28 0 -31 -3 -31 -31 0 -41 -16 -69 -40 -69 -17 0 -20 7 -20 50 0 49 -1 50 -30 50 l-30 0 0 -125z m115 -50 c0 -14 -8 -21 -27 -23 -24 -3 -28 0 -28 23 0 23 4 26 28 23 19 -2 27 -9 27 -23z" shape-rendering="auto"/>
 <path d="M4380 4589 c-14 -5 -288 -162 -609 -347 -411 -237 -589 -346 -605 -367 -21 -30 -21 -30 -21 -740 0 -710 0 -710 21 -740 16 -21 195 -130 606 -367 322 -185 598 -342 614 -348 16 -6 44 -8 63 -5 43 8 1185 666 1226 706 l30 29 3 721 2 721 -37 37 c-56 54 -1184 702 -1231 707 -20 2 -48 -1 -62 -7z" shape-rendering="auto"/>
 <path d="M10685 3404 c-17 -8 -74 -41 -127 -72 l-98 -56 0 -147 0 -147 126 -72 c122 -70 127 -72 153 -58 14 8 70 41 124 72 l97 57 0 149 0 149 -67 39 c-182 106 -176 103 -208 86z" shape-rendering="auto"/>
 </g>
<g id="layer103" fill="#65a159" stroke="none">
 <path d="M5820 7323 c-130 -69 -400 -238 -400 -250 0 -8 19 -22 43 -31 23 -9 66 -29 96 -44 29 -15 57 -28 62 -28 5 0 73 38 152 85 79 47 149 85 157 85 7 0 260 -142 561 -316 l549 -317 0 -637 c0 -594 -1 -638 -17 -652 -25 -21 -1081 -628 -1093 -628 -12 0 -1068 607 -1092 628 -17 14 -18 58 -18 652 l0 637 168 96 c92 53 186 101 210 107 73 19 136 -10 171 -77 8 -15 11 -207 11 -660 0 -484 3 -642 12 -651 18 -18 172 -16 187 2 9 10 11 190 9 693 l-3 680 -35 69 c-27 53 -46 76 -84 101 -67 45 -114 56 -231 51 -117 -5 -145 -16 -375 -147 -160 -92 -191 -117 -223 -176 -22 -40 -22 -42 -22 -730 0 -687 0 -690 22 -730 11 -22 32 -50 45 -62 25 -24 1102 -647 1158 -671 44 -18 136 -18 180 1 47 19 1107 632 1146 662 18 14 43 46 55 72 l24 48 0 680 0 681 -25 48 c-14 27 -41 61 -60 76 -19 16 -282 171 -585 346 l-550 318 -85 4 c-68 2 -92 0 -120 -15z" shape-rendering="auto"/>
 <path d="M6105 6479 c-265 -35 -424 -179 -413 -372 l3 -52 97 -3 97 -3 11 43 c36 141 101 182 305 194 183 11 314 -22 355 -89 19 -31 26 -90 14 -121 -18 -46 -113 -74 -364 -106 -197 -25 -266 -42 -343 -83 -75 -39 -111 -84 -133 -163 -31 -117 -1 -237 79 -317 108 -108 351 -154 593 -112 208 36 325 142 352 317 13 84 8 88 -102 88 l-93 0 -22 -59 c-22 -60 -56 -103 -102 -126 -75 -39 -310 -45 -397 -10 -60 24 -92 66 -92 120 0 35 5 48 26 64 37 29 70 37 314 76 228 36 297 53 371 90 56 29 112 90 130 141 19 56 17 179 -4 241 -37 106 -144 189 -292 228 -73 19 -293 27 -390 14z" shape-rendering="auto"/>
 <path d="M7558 5381 c-95 -31 -153 -109 -153 -206 1 -135 105 -227 238 -212 163 20 241 210 140 345 -44 59 -155 95 -225 73z m131 -56 c116 -60 127 -218 20 -289 -67 -43 -140 -39 -199 10 -89 76 -80 204 19 271 40 27 116 31 160 8z" shape-rendering="auto"/>
 <path d="M7530 5175 l0 -125 61 0 c33 0 69 5 80 11 31 16 42 56 26 89 -8 15 -11 34 -7 41 4 8 11 35 14 62 l7 47 -30 0 c-28 0 -31 -3 -31 -31 0 -41 -16 -69 -40 -69 -17 0 -20 7 -20 50 0 49 -1 50 -30 50 l-30 0 0 -125z m115 -50 c0 -14 -8 -21 -27 -23 -24 -3 -28 0 -28 23 0 23 4 26 28 23 19 -2 27 -9 27 -23z" shape-rendering="auto"/>
 <path d="M4375 4587 c-17 -8 -89 -48 -160 -89 -72 -41 -174 -101 -227 -132 -214 -123 -291 -168 -488 -281 -307 -177 -321 -186 -342 -225 -17 -33 -18 -68 -16 -735 3 -698 3 -700 24 -730 14 -19 84 -66 185 -124 90 -52 247 -143 349 -201 102 -59 277 -160 390 -226 113 -65 230 -131 260 -147 88 -46 66 -54 515 205 219 126 455 263 621 358 193 111 198 115 179 144 -27 44 -246 449 -243 451 18 16 271 134 278 130 6 -4 10 156 10 431 l0 436 -37 37 c-55 53 -1184 702 -1231 707 -20 2 -51 -2 -67 -9z m26 -69 c-21 -40 -109 -199 -193 -353 -84 -154 -248 -452 -363 -662 -116 -211 -213 -383 -216 -383 -3 0 -105 170 -226 378 -206 351 -220 378 -205 394 10 9 71 48 137 86 294 169 467 269 700 404 306 178 362 208 387 208 17 0 15 -8 -21 -72z m1194 -583 c48 -28 76 -52 89 -77 l20 -35 -128 -219 c-71 -121 -132 -223 -137 -228 -5 -6 -9 128 -9 322 l0 333 48 -28 c26 -15 79 -45 117 -68z" shape-rendering="auto" />
 <path d="M10685 3404 c-17 -8 -74 -41 -127 -72 l-98 -56 0 -147 0 -147 126 -72 c122 -70 127 -72 153 -58 14 8 70 41 124 72 l97 57 0 149 0 149 -67 39 c-182 106 -176 103 -208 86z" shape-rendering="auto"/>
 </g>

</svg>