<!DOCTYPE svg PUBLIC "-//W3C//DTD SVG 20010904//EN" "http://www.w3.org/TR/2001/REC-SVG-20010904/DTD/svg10.dtd">
<svg version="1.0" xmlns="http://www.w3.org/2000/svg" width="1600px" height="800px" viewBox="0 0 16000 8000" preserveAspectRatio="xMidYMid meet">
<g id="layer101" fill="#4f5b93" stroke="none">
 <path d="M7630 7997 c-3 -3 -66 -10 -140 -16 -74 -7 -169 -19 -210 -27 -102 -20 -242 -52 -315 -71 -103 -26 -297 -89 -385 -123 -30 -12 -72 -28 -93 -36 -20 -8 -45 -18 -55 -23 -9 -4 -33 -15 -52 -24 -66 -29 -305 -149 -345 -172 -22 -13 -47 -27 -55 -31 -35 -17 -299 -192 -381 -252 -158 -117 -262 -208 -437 -384 -176 -175 -267 -279 -384 -437 -60 -82 -235 -346 -252 -381 -4 -8 -18 -33 -31 -55 -23 -40 -143 -279 -172 -345 -9 -19 -20 -43 -24 -52 -5 -10 -15 -35 -23 -55 -8 -21 -24 -63 -36 -93 -103 -261 -183 -588 -230 -937 -29 -220 -29 -746 0 -966 28 -207 60 -371 107 -552 26 -103 89 -297 123 -385 12 -30 28 -72 36 -93 8 -20 18 -45 23 -55 4 -9 15 -33 24 -52 29 -66 149 -305 172 -345 13 -22 27 -47 31 -55 17 -35 192 -299 252 -381 117 -158 208 -262 384 -437 175 -176 279 -267 437 -384 82 -60 346 -235 381 -252 8 -4 33 -18 55 -31 40 -23 279 -143 345 -172 19 -9 43 -20 52 -24 10 -5 35 -15 55 -23 21 -8 63 -24 93 -36 88 -34 282 -97 385 -123 365 -95 523 -112 1035 -112 512 0 670 17 1035 112 103 26 297 89 385 123 30 12 72 28 93 36 20 8 45 18 55 23 9 4 33 15 52 24 66 29 305 149 345 172 22 13 47 27 55 31 35 17 299 192 381 252 158 117 262 208 437 384 176 175 267 279 384 437 60 82 235 346 252 381 4 8 18 33 31 55 23 40 143 279 172 345 9 19 20 43 24 52 5 10 15 35 23 55 8 21 24 63 36 93 103 261 183 588 230 937 17 127 20 206 20 483 0 277 -3 356 -20 483 -28 207 -60 371 -107 552 -26 103 -89 297 -123 385 -12 30 -28 72 -36 93 -8 20 -18 45 -23 55 -4 9 -15 33 -24 52 -29 66 -149 305 -172 345 -13 22 -27 47 -31 55 -17 35 -192 299 -252 381 -117 158 -213 268 -383 438 -170 170 -280 266 -438 383 -82 60 -346 235 -381 252 -8 4 -33 18 -55 31 -40 23 -279 143 -345 172 -19 9 -43 20 -52 24 -10 5 -35 15 -55 23 -21 8 -63 24 -93 36 -255 100 -637 195 -895 222 -108 11 -886 24 -895 15z m-1816 -2987 l51 -275 340 -6 c311 -5 346 -7 410 -27 413 -129 675 -494 675 -941 0 -179 -44 -310 -137 -410 -93 -99 -239 -161 -423 -181 -98 -10 -1030 -14 -1030 -4 0 3 -22 116 -49 252 -27 136 -115 580 -196 987 -80 407 -150 765 -156 795 -6 30 -13 60 -16 67 -6 15 76 19 316 19 l165 -1 50 -275z m3621 258 c5 -21 25 -133 76 -413 11 -60 23 -113 27 -117 4 -4 158 -8 342 -10 l335 -4 85 -28 c164 -55 279 -126 391 -242 75 -79 113 -132 159 -224 97 -192 134 -437 94 -627 -45 -219 -173 -346 -411 -410 l-98 -26 -532 -5 -532 -4 -5 24 c-3 12 -15 68 -25 123 -21 104 -246 1247 -332 1680 -27 138 -51 260 -54 272 -5 21 -2 22 67 26 40 1 148 4 240 5 166 2 168 2 173 -20z m-561 -535 c3 -16 47 -271 97 -568 102 -604 105 -646 57 -740 -49 -95 -155 -169 -303 -211 -48 -14 -122 -18 -365 -23 l-305 -6 2 -45 c1 -25 22 -150 46 -278 l43 -232 -240 2 -241 3 -32 160 c-17 88 -73 369 -123 625 -50 256 -115 589 -145 740 -84 426 -115 583 -115 588 0 6 457 -2 463 -8 5 -4 173 -826 223 -1085 9 -44 21 -86 27 -94 9 -10 58 -12 247 -10 214 4 238 6 270 24 19 12 43 36 53 55 25 48 25 46 -98 700 -61 330 -75 405 -75 418 0 9 67 12 254 12 l254 0 6 -27z"/>
 <path d="M6015 4343 c-55 -8 -59 41 53 -598 l37 -210 225 0 c260 0 302 9 377 78 68 62 78 87 76 192 -3 164 -54 305 -144 400 -59 62 -119 97 -219 124 -62 17 -100 21 -225 20 -82 -1 -163 -4 -180 -6z"/>
 <path d="M9692 4343 c-18 -3 -35 -10 -38 -17 -3 -7 11 -105 30 -217 66 -376 78 -444 90 -509 l12 -65 224 0 c189 0 233 3 276 18 96 33 165 106 178 187 8 51 -9 197 -31 265 -39 124 -118 227 -210 278 -94 50 -182 67 -348 65 -82 0 -165 -3 -183 -5z"/>
 </g>
<g id="layer102" fill="#fefeff" stroke="none">
 <path d="M5355 5303 c-44 -2 -83 -7 -88 -12 -4 -4 -1 -38 8 -77 8 -38 80 -402 161 -809 226 -1147 244 -1238 256 -1252 13 -16 889 -18 1038 -3 189 20 336 85 436 193 101 108 144 235 144 418 0 274 -94 512 -279 703 -124 128 -251 206 -416 258 -65 20 -96 22 -402 26 -183 2 -333 6 -333 9 0 21 -93 512 -100 531 -9 22 -12 22 -177 20 -93 -1 -204 -4 -248 -5z m1065 -994 c181 -50 271 -144 321 -337 24 -94 30 -246 10 -282 -26 -48 -75 -90 -130 -112 -50 -19 -80 -22 -278 -26 -123 -2 -223 0 -223 4 0 5 -18 113 -40 239 -53 301 -90 513 -90 519 0 9 56 13 205 15 125 1 163 -3 225 -20z"/>
 <path d="M9020 5303 c-41 -2 -78 -7 -83 -12 -4 -4 17 -131 47 -282 46 -230 260 -1313 341 -1722 12 -64 29 -124 36 -133 12 -14 69 -15 543 -12 l531 5 98 26 c128 34 207 78 288 157 137 136 187 343 144 605 -36 221 -129 399 -291 556 -121 116 -213 171 -374 225 l-85 28 -332 4 -332 3 -10 52 c-6 29 -19 102 -30 162 -44 241 -61 328 -67 336 -5 8 -258 9 -424 2z m1080 -994 c171 -47 258 -132 313 -304 22 -67 39 -217 31 -263 -14 -77 -62 -132 -143 -164 -50 -19 -80 -22 -277 -26 l-221 -4 -12 68 c-7 38 -21 119 -32 179 -43 245 -89 512 -89 518 0 10 51 14 205 16 125 1 163 -3 225 -20z"/>
 <path d="M8344 4765 c-6 -16 0 -56 76 -460 54 -287 95 -517 105 -582 9 -59 -9 -109 -48 -130 -27 -15 -70 -18 -268 -21 l-235 -4 -57 283 c-32 156 -85 424 -120 594 l-63 310 -44 7 c-73 11 -448 9 -455 -2 -6 -10 3 -58 110 -600 56 -282 214 -1088 266 -1355 16 -82 33 -160 39 -172 10 -23 10 -23 259 -23 137 0 252 3 254 8 3 4 -15 113 -39 242 -24 129 -47 251 -50 272 l-6 36 298 4 c325 5 356 10 482 68 76 36 166 118 200 185 48 94 45 134 -62 763 -52 310 -100 570 -107 578 -18 21 -527 21 -535 -1z"/>
 </g>

</svg>