<!DOCTYPE svg PUBLIC "-//W3C//DTD SVG 20010904//EN" "http://www.w3.org/TR/2001/REC-SVG-20010904/DTD/svg10.dtd">
<svg version="1.0" xmlns="http://www.w3.org/2000/svg" width="1024px" height="1024px" viewBox="0 0 10240 10240" preserveAspectRatio="xMidYMid meet">
<g id="layer101" fill="#3773a5" stroke="none">
 <path d="M1300 7633 c-237 -40 -478 -170 -665 -358 -132 -132 -218 -256 -315 -450 -153 -309 -243 -645 -296 -1106 -22 -192 -31 -810 -15 -1020 53 -697 233 -1213 548 -1571 201 -228 444 -372 762 -451 l86 -21 1868 -3 1867 -3 0 -170 0 -170 -1245 0 -1246 0 3 -667 3 -668 31 -87 c152 -423 655 -711 1449 -828 281 -42 426 -52 838 -57 549 -7 863 15 1235 88 785 154 1281 515 1398 1017 23 99 22 2612 -2 2770 -22 153 -57 263 -124 397 -170 339 -472 553 -920 653 l-115 26 -1430 6 c-1543 7 -1490 5 -1705 60 -551 141 -903 595 -970 1249 -6 60 -10 368 -10 737 l0 634 -502 -1 c-277 -1 -514 -4 -528 -6z m2535 -5968 c84 -22 147 -60 210 -126 134 -140 162 -337 75 -510 -57 -110 -197 -209 -329 -230 -187 -30 -378 77 -464 259 -30 63 -32 74 -32 177 0 106 1 113 36 186 93 195 303 296 504 244z"/>
 </g>
<g id="layer102" fill="#ffd242" stroke="none">
 <path d="M4820 10224 c-138 -7 -414 -35 -550 -55 -788 -118 -1304 -403 -1515 -834 -104 -213 -96 -78 -95 -1589 1 -1261 2 -1324 20 -1434 87 -506 422 -856 950 -992 215 -56 134 -53 1685 -60 1571 -7 1476 -4 1690 -65 213 -62 371 -152 520 -300 238 -235 377 -555 415 -950 5 -62 10 -382 10 -737 l0 -628 474 0 c381 0 491 3 562 15 234 41 445 151 632 329 301 288 498 717 597 1301 l25 147 0 728 c0 798 1 788 -65 1065 -66 281 -204 602 -339 790 -230 320 -534 521 -899 596 -101 20 -115 20 -1949 19 l-1848 -1 0 176 0 175 1245 0 1245 0 0 638 c0 608 -1 643 -20 718 -116 453 -628 764 -1464 889 -283 42 -487 56 -881 59 -203 2 -404 2 -445 0z m1862 -815 c151 -50 260 -168 299 -322 16 -65 7 -189 -20 -257 -42 -109 -140 -208 -251 -252 -80 -32 -242 -32 -320 -1 -271 111 -366 446 -192 675 115 151 312 215 484 157z"/>
 </g>

</svg>