<!DOCTYPE svg PUBLIC "-//W3C//DTD SVG 20010904//EN" "http://www.w3.org/TR/2001/REC-SVG-20010904/DTD/svg10.dtd">
<svg version="1.0" xmlns="http://www.w3.org/2000/svg" width="500px" height="500px" viewBox="0 0 5000 5000" preserveAspectRatio="xMidYMid meet">
<g id="layerbg1" fill="#970e16" stroke="none">
 <path d="M3680 4990 c-14 -5 -72 -20 -130 -34 -58 -14 -114 -27 -125 -30 -11 -2 -69 -19 -130 -36 -60 -17 -135 -38 -165 -45 -30 -8 -80 -20 -110 -28 -30 -9 -82 -23 -115 -32 -33 -9 -85 -22 -115 -30 -57 -14 -135 -35 -230 -62 -30 -8 -80 -21 -110 -29 -81 -20 -158 -41 -220 -59 -30 -9 -82 -23 -115 -30 -33 -8 -85 -21 -115 -30 -66 -20 -146 -42 -220 -60 -68 -17 -147 -38 -220 -59 -30 -9 -82 -23 -115 -30 -33 -8 -85 -22 -115 -31 -81 -24 -157 -44 -225 -60 -33 -7 -85 -21 -115 -30 -78 -24 -155 -44 -225 -60 -229 -51 -395 -135 -531 -270 -123 -122 -191 -232 -220 -355 -16 -67 -19 -375 -4 -487 30 -226 29 -221 85 -282 29 -31 80 -88 113 -127 33 -39 91 -105 129 -145 37 -41 83 -92 100 -114 22 -26 36 -36 43 -29 8 8 48 509 105 1309 8 116 20 254 27 308 l11 98 46 -80 c65 -112 178 -304 279 -471 11 -19 41 -69 65 -110 24 -41 58 -97 75 -125 16 -27 69 -115 116 -195 47 -80 100 -170 119 -200 18 -30 73 -122 121 -205 49 -82 104 -174 123 -203 l34 -53 82 68 c45 37 120 99 167 138 46 38 98 81 116 95 17 14 87 70 154 125 67 55 151 123 185 150 34 28 95 77 135 110 40 33 89 74 110 90 21 17 68 56 106 87 38 31 132 108 209 172 l140 115 7 -77 c22 -249 32 -411 73 -1117 25 -429 48 -786 50 -793 6 -16 22 -12 230 49 37 11 162 45 235 65 30 8 69 19 85 23 17 5 64 19 105 30 41 12 89 25 105 30 40 12 128 37 195 55 30 8 89 25 130 37 41 11 95 27 120 34 25 7 70 20 100 28 125 34 176 49 198 57 28 12 28 3 -1 -40 -13 -19 -43 -71 -67 -115 -24 -44 -52 -92 -62 -108 -11 -15 -45 -73 -77 -130 -32 -56 -74 -129 -93 -162 -20 -33 -73 -124 -119 -203 -46 -79 -109 -187 -140 -240 -31 -53 -89 -153 -129 -222 -168 -288 -164 -281 -147 -297 8 -8 41 -21 73 -28 72 -17 208 -50 364 -90 124 -31 186 -47 213 -52 15 -3 26 -11 25 -17 -2 -6 2 -11 7 -11 6 0 9 4 7 10 -2 5 2 5 8 -2 22 -21 202 99 302 202 103 105 158 210 181 345 14 83 14 393 0 485 -20 129 -74 306 -110 360 -7 11 -13 29 -13 42 0 12 -6 26 -14 30 -8 4 -27 35 -43 68 -61 124 -212 362 -295 465 -124 155 -219 265 -333 385 -122 129 -133 145 -138 185 -3 25 -32 250 -66 500 -33 250 -87 660 -120 910 -33 250 -65 486 -71 523 -9 50 -9 71 -1 81 16 20 -2 62 -31 69 -27 8 -35 7 -68 -3z m1 -107 c-26 -49 -69 -128 -96 -178 -26 -49 -63 -115 -81 -146 -19 -31 -34 -59 -34 -62 0 -2 -21 -42 -46 -88 -26 -46 -63 -113 -82 -149 -19 -36 -73 -135 -120 -220 -47 -85 -107 -198 -135 -250 -27 -52 -55 -101 -62 -108 -10 -11 -29 -4 -106 39 -150 83 -251 132 -419 204 -36 15 -74 31 -85 36 -93 41 -413 147 -495 164 l-34 8 59 28 c33 16 83 38 110 50 28 12 92 41 143 65 52 24 95 44 97 44 2 0 41 17 87 39 124 58 207 96 263 121 28 12 73 32 100 45 72 33 171 79 238 109 31 14 83 38 115 52 31 15 82 38 112 51 30 14 82 38 115 53 33 16 83 38 110 50 53 24 200 91 250 114 17 8 33 15 36 15 4 1 -14 -38 -40 -86z"/>
 <path d="M3967 4364 c-4 -4 -3 -12 1 -18 4 -6 7 -14 8 -18 1 -5 3 -10 4 -13 1 -3 3 -9 4 -15 0 -5 4 -10 9 -10 4 0 10 0 13 0 4 0 1 7 -6 15 -7 8 -9 15 -5 15 4 0 1 7 -6 17 -8 9 -12 18 -11 20 6 8 -4 13 -11 7z"/>
 <path d="M4167 3773 c-4 -3 -2 -12 4 -20 6 -7 8 -13 4 -13 -4 0 -2 -7 5 -15 7 -8 9 -15 5 -15 -4 0 -2 -7 5 -15 7 -8 9 -15 5 -15 -4 0 -2 -7 5 -15 7 -8 9 -15 5 -15 -4 0 -1 -7 6 -17 8 -9 13 -18 12 -20 -2 -1 -2 -5 -2 -8 1 -3 2 -9 3 -15 0 -5 4 -10 9 -10 7 0 8 4 6 15 -1 3 -3 10 -4 15 -1 6 -4 12 -5 15 -1 3 -4 10 -5 15 -1 6 -4 12 -5 15 -1 3 -4 10 -5 15 -1 6 -4 12 -5 15 -1 3 -4 10 -5 15 -1 6 -4 12 -5 15 -1 3 -4 10 -5 15 -1 6 -4 12 -5 15 -1 3 -3 9 -4 14 -2 14 -12 22 -19 14z"/>
 <path d="M4356 3211 c-4 -5 -2 -12 4 -16 6 -4 8 -10 5 -15 -3 -5 -1 -11 5 -15 6 -4 8 -11 4 -16 -7 -13 15 -41 27 -33 5 3 4 15 -3 27 -7 12 -13 25 -14 30 -1 4 -3 9 -4 12 -1 3 -3 9 -4 14 -2 16 -14 23 -20 12z"/>
 <path d="M4547 2654 c-4 -4 -3 -12 1 -18 4 -6 7 -14 8 -18 1 -5 3 -10 4 -13 1 -3 3 -9 4 -15 0 -5 4 -10 9 -10 4 0 10 0 13 0 4 0 1 7 -6 15 -7 8 -9 15 -5 15 4 0 1 7 -6 17 -8 9 -12 18 -11 20 6 8 -4 13 -11 7z"/>
 <path d="M4667 2304 c-4 -4 -3 -12 1 -18 4 -6 7 -14 8 -18 1 -5 3 -10 4 -13 1 -3 3 -9 4 -15 0 -5 4 -10 9 -10 4 0 10 0 13 0 4 0 1 7 -6 15 -7 8 -9 15 -5 15 4 0 1 7 -6 17 -8 9 -12 18 -11 20 6 8 -4 13 -11 7z"/>
 <path d="M287 2084 c-4 -4 -3 -12 1 -18 4 -6 7 -14 8 -18 1 -5 3 -10 4 -13 1 -3 4 -9 5 -15 1 -5 4 -12 5 -15 1 -3 4 -9 5 -15 1 -5 4 -12 5 -15 1 -3 3 -9 4 -15 0 -5 4 -10 9 -10 4 0 10 0 13 0 4 0 2 6 -4 13 -6 6 -11 15 -11 20 -1 4 -2 9 -2 12 -1 3 -3 10 -4 15 -1 6 -4 12 -5 15 -1 3 -4 10 -5 15 -1 6 -4 12 -5 15 -1 3 -3 9 -4 14 -2 14 -12 22 -19 15z"/>
 <path d="M1646 451 c-6 -8 5 -20 31 -35 23 -13 22 12 -2 28 -13 9 -26 12 -29 7z"/>
 </g>
<g id="layerbg2" fill="#eb1521" stroke="none">
 <path d="M3747 4973 c-3 -5 1 -48 9 -98 7 -49 40 -297 74 -550 33 -253 88 -665 121 -915 34 -250 63 -475 66 -500 5 -40 16 -56 138 -185 133 -140 270 -300 314 -365 13 -19 29 -39 36 -45 6 -5 44 -59 85 -118 50 -73 70 -111 63 -118 -9 -9 -43 -20 -173 -55 -97 -26 -154 -42 -210 -59 -53 -16 -99 -29 -212 -60 -29 -7 -78 -21 -108 -30 -30 -9 -77 -22 -105 -30 -27 -7 -75 -21 -105 -30 -30 -9 -77 -22 -105 -30 -27 -7 -76 -21 -107 -29 -32 -9 -82 -22 -110 -30 -29 -8 -78 -22 -108 -31 -129 -39 -160 -44 -160 -29 0 50 -91 1568 -99 1654 -6 58 -13 155 -17 215 -3 61 -8 113 -10 117 -5 8 -83 -53 -344 -267 -40 -33 -89 -73 -110 -90 -21 -16 -111 -91 -200 -165 -90 -74 -202 -166 -250 -205 -48 -38 -131 -106 -185 -150 -54 -44 -115 -93 -135 -110 -197 -159 -209 -170 -194 -185 11 -11 95 -58 179 -100 33 -17 67 -35 75 -40 50 -31 153 -89 200 -113 96 -49 156 -83 186 -104 16 -11 40 -24 54 -28 14 -4 32 -13 40 -20 17 -15 111 -67 207 -115 35 -17 65 -35 67 -39 3 -4 34 -23 68 -40 35 -18 95 -51 133 -72 39 -21 90 -49 115 -61 25 -13 59 -32 75 -43 17 -12 51 -31 77 -43 54 -26 67 -43 147 -185 32 -56 72 -124 88 -152 17 -27 64 -106 104 -175 40 -69 90 -154 111 -190 20 -36 54 -92 75 -125 20 -33 52 -89 71 -124 42 -78 98 -168 111 -175 5 -4 32 33 59 81 27 49 82 144 122 213 40 69 95 163 122 210 44 76 169 290 266 455 19 33 61 106 93 162 32 57 66 115 77 130 10 16 42 71 71 123 28 52 60 106 70 119 l18 24 33 -59 c18 -33 50 -95 72 -138 27 -54 42 -76 49 -69 8 8 -2 51 -30 139 -23 71 -46 138 -51 149 -6 11 -87 247 -180 525 -93 278 -174 514 -180 525 -5 11 -35 101 -66 200 -31 99 -60 185 -64 190 -4 6 -33 87 -63 180 -31 94 -115 343 -187 555 -72 212 -149 441 -172 510 -56 174 -86 238 -101 213z"/>
 <path d="M935 2364 c-44 -8 -96 -22 -115 -30 -104 -47 -128 -62 -185 -115 -107 -101 -148 -229 -128 -401 11 -88 49 -222 79 -278 7 -14 29 -59 48 -100 105 -227 427 -579 746 -817 135 -101 324 -222 472 -302 31 -16 65 -35 75 -40 77 -43 353 -161 376 -161 5 0 23 -6 40 -14 18 -8 66 -24 107 -35 41 -12 89 -26 105 -31 17 -5 81 -16 143 -25 130 -18 484 -16 568 4 122 28 266 129 318 223 76 137 74 337 -6 538 -32 80 -112 225 -158 286 -22 29 -40 56 -40 60 0 8 -56 78 -106 134 -134 150 -202 221 -270 280 -113 99 -166 143 -211 176 -132 98 -348 244 -359 244 -4 0 -39 19 -78 43 -89 53 -381 197 -401 197 -4 0 -21 7 -38 15 -102 48 -370 123 -522 146 -117 18 -369 20 -460 3z"/>
 </g>
<g id="layerbg3" fill="#dc6262" stroke="none">
 </g>
<g id="layerbg4" fill="#f36662" stroke="none">
 <path d="M3670 4966 c-30 -13 -84 -37 -120 -53 -36 -17 -87 -41 -115 -53 -27 -12 -77 -34 -110 -50 -33 -15 -85 -39 -115 -53 -30 -13 -81 -36 -112 -51 -32 -14 -84 -38 -115 -52 -67 -30 -166 -76 -238 -109 -27 -13 -72 -33 -100 -45 -56 -25 -139 -63 -263 -121 -46 -22 -85 -39 -87 -39 -2 0 -51 -22 -110 -50 -59 -27 -108 -50 -110 -50 -2 0 -52 -23 -111 -50 -86 -41 -104 -53 -95 -64 7 -8 28 -17 49 -21 73 -13 399 -121 497 -164 11 -5 49 -21 85 -36 168 -72 269 -121 418 -203 50 -29 96 -52 102 -52 10 0 32 37 97 160 22 41 78 145 125 230 47 85 101 184 120 220 19 36 56 103 82 149 25 46 46 86 46 88 0 3 15 31 34 62 18 31 55 97 81 146 27 50 70 130 97 180 26 49 48 93 48 97 0 13 -21 9 -80 -16z"/>
 <path d="M606 4128 c-11 -34 -30 -247 -66 -758 -59 -812 -68 -932 -72 -936 -4 -3 -51 48 -223 241 -11 13 -54 62 -95 109 -41 47 -78 86 -82 86 -24 0 -16 -50 42 -240 16 -52 43 -142 60 -200 117 -389 254 -730 281 -703 5 5 14 155 21 334 6 178 13 326 15 328 2 3 47 8 101 12 53 4 160 12 237 18 77 6 165 13 195 16 30 3 147 12 260 20 256 19 325 28 324 38 0 5 -15 32 -32 60 -16 29 -69 117 -116 197 -48 80 -100 168 -117 195 -16 28 -68 115 -115 195 -47 80 -100 168 -116 195 -17 28 -49 82 -71 120 -21 39 -49 86 -62 105 -33 51 -176 291 -288 484 -51 88 -73 111 -81 84z"/>
 <path d="M975 2370 c-8 -12 20 -24 35 -15 6 3 8 11 5 16 -8 12 -32 12 -40 -1z"/>
 <path d="M1335 2360 c-8 -12 20 -24 35 -15 6 3 8 11 5 16 -8 12 -32 12 -40 -1z"/>
 <path d="M1475 2340 c-8 -12 20 -24 35 -15 6 3 8 11 5 16 -8 12 -32 12 -40 -1z"/>
 <path d="M2076 2231 c-3 -5 5 -16 19 -25 24 -16 45 -6 22 11 -24 19 -36 23 -41 14z"/>
 <path d="M504 1826 c-4 -10 -2 -22 4 -28 8 -8 13 -7 18 6 4 10 2 22 -4 28 -8 8 -13 7 -18 -6z"/>
 <path d="M3778 533 c-8 -10 -41 -65 -72 -123 -84 -153 -167 -299 -199 -347 -35 -55 -34 -63 6 -63 42 0 166 27 181 39 6 5 135 50 286 100 295 98 456 158 480 177 8 7 24 14 35 16 11 2 20 10 20 18 0 15 -20 22 -155 55 -30 8 -83 21 -117 29 -35 9 -91 23 -125 32 -35 8 -89 22 -120 30 -32 7 -84 20 -115 28 -32 7 -65 17 -74 20 -9 4 -22 -1 -31 -11z"/>
 </g>
<g id="layerbg5" fill="#fefdfc" stroke="none">
 <path d="M1509 2495 c-3 -2 -104 -12 -225 -20 -120 -9 -239 -18 -264 -20 -25 -2 -110 -9 -190 -15 -311 -24 -352 -28 -359 -36 -5 -5 -13 -161 -20 -348 l-11 -338 96 -145 c62 -94 99 -142 106 -135 6 6 -5 39 -30 93 -49 104 -57 125 -76 216 -68 311 75 529 393 597 139 30 443 16 606 -28 143 -39 178 -49 265 -78 52 -18 106 -38 120 -45 14 -7 29 -13 33 -13 22 0 311 -141 403 -197 39 -24 74 -43 78 -43 10 0 239 -154 313 -210 550 -423 872 -882 873 -1245 0 -93 -20 -179 -56 -244 -45 -80 -176 -172 -289 -200 -26 -7 -57 -19 -69 -27 -18 -12 -4 -14 131 -14 l151 0 33 53 c33 51 92 153 204 352 30 55 61 107 67 115 8 12 0 32 -35 90 -40 67 -82 139 -217 370 -140 240 -176 301 -206 350 -19 30 -59 101 -91 158 -69 125 -101 162 -173 200 -30 16 -98 53 -150 82 -101 56 -133 74 -245 135 -38 20 -74 41 -80 45 -5 4 -41 25 -80 45 -38 21 -88 48 -110 60 -22 12 -71 39 -110 60 -38 21 -74 41 -80 45 -9 7 -69 40 -205 113 -30 16 -59 33 -65 37 -5 4 -39 23 -75 42 -36 20 -92 50 -125 68 -33 18 -79 44 -103 57 -39 21 -120 32 -133 18z"/>
 </g>
<g id="layer101" fill="#970e16" stroke="none">
 <path d="M3707 4994 c-3 -3 -20 -9 -39 -14 -18 -5 -67 -18 -108 -30 -41 -12 -93 -25 -115 -30 -22 -5 -89 -23 -150 -40 -60 -17 -135 -38 -165 -45 -56 -14 -130 -33 -230 -61 -30 -8 -80 -21 -110 -29 -30 -7 -80 -20 -110 -29 -30 -8 -82 -22 -115 -31 -33 -9 -85 -23 -115 -31 -81 -20 -158 -41 -220 -59 -30 -9 -82 -23 -115 -30 -33 -8 -85 -21 -115 -30 -66 -20 -146 -42 -220 -60 -68 -17 -147 -38 -220 -59 -30 -9 -82 -23 -115 -30 -33 -8 -85 -22 -115 -31 -81 -24 -157 -44 -225 -60 -33 -7 -85 -21 -115 -30 -78 -24 -155 -44 -225 -60 -228 -51 -390 -133 -525 -266 -96 -94 -167 -200 -206 -306 -29 -77 -29 -82 -29 -288 0 -181 3 -228 24 -339 14 -70 30 -133 36 -140 16 -16 100 -111 170 -191 33 -38 87 -99 120 -135 33 -36 73 -80 88 -99 15 -18 30 -32 32 -29 4 4 55 662 100 1303 18 250 36 415 46 415 4 0 24 -30 45 -67 20 -38 52 -93 71 -123 48 -77 96 -158 167 -280 33 -58 63 -107 67 -110 3 -3 26 -41 51 -85 25 -44 59 -102 76 -130 16 -27 69 -115 116 -195 47 -80 100 -170 119 -200 18 -30 73 -122 122 -205 48 -82 102 -172 118 -198 l30 -48 26 23 c14 13 28 25 31 28 3 3 28 23 55 45 28 21 52 42 55 45 3 3 28 23 55 45 28 21 52 42 55 45 3 4 30 26 61 51 85 67 246 197 319 258 78 64 91 75 155 126 27 22 61 50 75 62 35 30 64 54 97 80 15 12 40 32 55 45 15 13 40 33 55 45 15 12 37 30 48 40 11 10 43 36 70 58 28 21 52 42 55 45 3 3 37 31 76 62 l72 57 6 -112 c4 -62 11 -157 16 -212 6 -55 31 -455 56 -890 25 -434 47 -791 48 -792 2 -3 95 21 166 42 30 9 79 23 108 31 28 8 76 21 105 29 28 8 77 21 107 29 30 8 80 22 110 31 30 9 78 23 105 30 28 8 75 21 105 30 30 9 79 23 108 30 113 31 159 44 212 60 30 9 80 23 110 32 30 8 78 21 105 28 46 13 131 37 179 52 19 6 18 4 -4 -33 -13 -21 -50 -86 -82 -143 -32 -58 -63 -110 -68 -116 -5 -6 -36 -58 -68 -116 -33 -57 -75 -131 -94 -164 -20 -33 -73 -125 -119 -205 -46 -80 -86 -147 -89 -150 -3 -3 -29 -45 -57 -95 -27 -49 -83 -146 -123 -215 -152 -262 -162 -282 -152 -292 6 -6 36 -16 69 -24 58 -13 140 -33 246 -60 31 -7 85 -21 120 -30 34 -8 87 -21 117 -29 30 -8 76 -19 103 -25 26 -7 47 -16 47 -21 0 -10 103 50 108 63 2 4 9 8 16 8 7 0 26 11 42 25 16 14 42 36 57 48 46 36 109 104 153 167 38 55 69 140 103 283 14 59 15 312 1 369 -58 247 -73 302 -92 349 -12 30 -28 63 -35 74 -7 11 -13 30 -13 43 0 13 -4 21 -9 18 -4 -3 -23 25 -40 62 -17 37 -50 99 -72 137 -47 82 -196 305 -213 320 -7 6 -23 26 -36 45 -47 69 -184 227 -315 365 -122 129 -133 145 -138 185 -3 25 -32 250 -66 500 -33 250 -87 662 -121 915 -33 253 -65 487 -70 520 -19 116 -19 126 -8 119 6 -4 9 -1 6 6 -5 16 -28 26 -28 13 0 -5 -22 -49 -48 -98 -27 -50 -70 -130 -97 -180 -26 -49 -63 -115 -81 -146 -19 -31 -34 -59 -34 -62 0 -2 -21 -42 -46 -88 -26 -46 -63 -113 -82 -149 -19 -36 -73 -135 -120 -220 -91 -167 -120 -220 -172 -317 -18 -35 -37 -63 -41 -63 -5 0 -51 23 -101 52 -149 82 -250 131 -418 203 -36 15 -74 31 -85 36 -42 18 -164 62 -260 94 -156 51 -197 63 -238 70 -20 4 -39 10 -42 14 -4 7 55 37 190 97 29 12 92 41 140 63 48 23 89 41 90 41 2 0 41 17 87 39 119 56 206 95 263 121 51 22 141 63 230 105 28 13 76 35 108 49 31 14 83 38 115 52 31 15 82 38 112 51 30 14 82 38 115 53 33 16 83 38 110 50 28 12 82 37 120 55 39 18 94 43 123 55 28 12 52 26 52 31 0 10 -14 12 -23 3z"/>
 </g>
<g id="layer102" fill="#eb1521" stroke="none">
 <path d="M3756 4938 c2 -18 9 -60 14 -93 5 -33 37 -267 70 -520 34 -253 88 -665 121 -915 34 -250 63 -475 66 -500 5 -40 16 -56 138 -185 131 -138 268 -296 315 -365 13 -19 29 -39 36 -45 37 -32 213 -314 285 -455 21 -41 38 -71 38 -66 1 12 -76 254 -89 281 -6 11 -87 247 -180 525 -93 278 -174 514 -180 525 -5 11 -35 101 -66 200 -31 99 -60 185 -64 190 -4 6 -33 87 -63 180 -31 94 -115 343 -187 555 -72 212 -149 441 -172 510 -39 120 -74 210 -83 210 -2 0 -2 -15 1 -32z"/>
 <path d="M2960 3603 c-30 -25 -64 -52 -75 -61 -11 -10 -42 -35 -70 -57 -27 -22 -59 -48 -70 -58 -11 -10 -33 -28 -48 -40 -15 -12 -40 -32 -55 -45 -15 -13 -40 -33 -55 -45 -33 -26 -62 -50 -97 -80 -14 -12 -48 -40 -75 -62 -64 -51 -77 -62 -155 -126 -73 -61 -234 -191 -319 -258 -31 -25 -58 -47 -61 -51 -3 -3 -27 -24 -55 -45 -27 -22 -52 -42 -55 -45 -3 -3 -27 -24 -55 -45 -76 -61 -105 -88 -105 -97 0 -4 15 -15 33 -23 17 -8 73 -37 122 -65 50 -27 97 -53 105 -57 8 -4 42 -23 75 -43 33 -19 85 -48 115 -63 96 -49 156 -83 186 -104 16 -11 40 -24 54 -28 14 -4 32 -13 40 -20 17 -15 111 -67 207 -115 35 -17 65 -35 67 -39 3 -4 34 -23 68 -40 35 -18 95 -51 133 -72 39 -21 90 -49 115 -61 25 -13 59 -32 75 -43 17 -12 51 -31 78 -44 56 -27 77 -52 155 -191 32 -58 73 -127 89 -155 17 -27 64 -106 104 -175 40 -69 90 -154 111 -190 20 -36 54 -92 75 -125 20 -33 52 -89 71 -124 19 -35 50 -89 69 -119 l35 -55 48 84 c26 46 80 140 120 209 40 69 96 166 123 215 28 50 54 92 57 95 3 3 43 70 89 150 46 80 99 172 119 205 19 33 61 107 94 164 32 58 63 110 68 116 5 6 36 58 68 116 32 57 69 122 82 143 22 37 23 39 4 33 -51 -15 -134 -40 -182 -52 -113 -31 -159 -44 -212 -60 -53 -16 -99 -29 -212 -60 -29 -7 -78 -21 -108 -30 -30 -9 -77 -22 -105 -30 -27 -7 -75 -21 -105 -30 -30 -9 -80 -23 -110 -31 -30 -8 -79 -21 -107 -29 -29 -8 -77 -21 -105 -29 -29 -8 -78 -22 -108 -31 -71 -21 -164 -45 -166 -42 -1 1 -23 358 -48 792 -26 435 -51 844 -57 910 -5 66 -13 161 -17 211 l-7 91 -55 -44z"/>
 <path d="M935 2354 c-77 -14 -94 -20 -194 -67 -66 -31 -156 -122 -187 -190 -39 -87 -50 -168 -37 -279 11 -88 49 -222 79 -278 7 -14 29 -59 48 -100 43 -93 139 -229 255 -363 241 -278 586 -547 953 -746 31 -16 65 -35 75 -40 77 -43 353 -161 376 -161 5 0 23 -6 40 -14 18 -8 66 -24 107 -36 249 -70 266 -73 503 -78 204 -4 223 -2 290 18 100 31 195 78 238 117 20 19 44 40 52 46 25 19 66 101 82 163 31 118 13 284 -47 434 -32 80 -112 225 -158 286 -22 29 -40 56 -40 60 0 7 -68 94 -81 104 -4 3 -23 25 -44 50 -52 64 -203 217 -265 270 -62 52 -86 73 -120 103 -14 12 -41 33 -60 47 -19 13 -40 29 -47 35 -33 29 -309 215 -319 215 -4 0 -39 19 -78 43 -89 53 -381 197 -401 197 -4 0 -21 7 -38 15 -102 48 -370 123 -522 146 -117 18 -369 20 -460 3z"/>
 </g>
<g id="layer103" fill="#dc6262" stroke="none">
 </g>
<g id="layer104" fill="#f36662" stroke="none">
 <path d="M3695 4969 c-71 -33 -209 -96 -260 -119 -27 -12 -77 -34 -110 -50 -33 -15 -85 -39 -115 -53 -30 -13 -81 -36 -112 -51 -32 -14 -84 -38 -115 -52 -67 -30 -166 -76 -238 -109 -27 -13 -72 -33 -100 -45 -56 -25 -139 -63 -263 -121 -46 -22 -85 -39 -87 -39 -1 0 -42 -18 -90 -41 -48 -22 -111 -51 -140 -63 -135 -60 -194 -90 -190 -97 3 -4 22 -10 42 -14 74 -13 400 -121 498 -164 11 -5 49 -21 85 -36 168 -72 269 -121 418 -203 50 -29 96 -52 101 -52 4 0 23 28 41 63 52 97 81 150 172 317 47 85 101 184 120 220 19 36 56 103 82 149 25 46 46 86 46 88 0 3 15 31 34 62 18 31 55 97 81 146 27 50 70 130 97 180 26 49 47 92 46 96 -2 4 -21 -2 -43 -12z"/>
 <path d="M602 4028 c-7 -57 -16 -166 -22 -243 -5 -77 -30 -418 -55 -759 -25 -340 -45 -620 -43 -621 2 -1 48 1 103 6 55 4 163 12 240 18 77 6 165 13 195 16 30 3 147 12 260 20 113 9 231 19 262 23 l58 7 -29 45 c-15 25 -68 113 -117 195 -48 83 -103 175 -121 205 -19 30 -72 120 -119 200 -47 80 -100 168 -116 195 -17 28 -51 86 -76 130 -25 44 -48 82 -51 85 -4 3 -34 52 -67 110 -71 122 -119 203 -167 280 -19 30 -51 85 -71 123 -21 37 -41 67 -45 67 -4 0 -13 -46 -19 -102z"/>
 <path d="M60 2855 c0 -13 31 -130 60 -225 16 -52 43 -142 60 -200 68 -226 173 -520 218 -610 l47 -94 6 84 c4 47 10 200 14 341 l7 256 -33 39 c-18 21 -58 66 -89 99 -30 33 -82 91 -115 129 -149 173 -175 199 -175 181z"/>
 <path d="M3785 527 c-6 -7 -37 -59 -69 -117 -91 -165 -169 -301 -199 -347 -15 -24 -27 -48 -27 -54 0 -13 109 -3 125 12 5 5 16 9 25 9 8 0 28 7 44 15 16 8 151 56 300 105 298 100 453 157 477 177 8 7 23 13 32 13 35 0 15 19 -30 30 -27 6 -73 17 -103 25 -30 8 -83 21 -117 29 -35 9 -91 23 -125 32 -35 8 -89 22 -120 30 -32 7 -84 20 -115 28 -32 7 -65 16 -73 19 -8 4 -20 1 -25 -6z"/>
 </g>
<g id="layer105" fill="#fefdfc" stroke="none">
 <path d="M1509 2485 c-3 -2 -104 -12 -225 -20 -120 -9 -239 -18 -264 -20 -25 -2 -110 -9 -190 -15 -285 -22 -351 -28 -354 -31 -2 -2 -8 -156 -15 -342 l-11 -339 92 -139 c50 -76 93 -137 95 -135 2 2 -14 41 -35 87 -49 104 -57 126 -76 216 -29 132 -16 263 35 366 55 111 198 204 368 241 140 30 444 16 609 -29 28 -8 78 -22 110 -30 84 -23 243 -77 272 -92 14 -7 29 -13 33 -13 22 0 311 -141 403 -197 39 -24 74 -43 78 -43 11 0 314 -204 326 -220 3 -3 21 -17 40 -30 19 -13 40 -29 46 -35 6 -5 35 -30 64 -55 30 -25 72 -61 94 -80 50 -44 193 -192 239 -247 19 -23 43 -50 53 -60 24 -25 114 -148 150 -208 126 -206 184 -371 184 -530 0 -118 -38 -244 -89 -293 -94 -91 -170 -135 -283 -167 -32 -8 -58 -18 -58 -20 0 -3 63 -5 139 -5 l139 0 33 53 c38 59 120 202 205 357 32 58 61 107 66 108 14 6 9 20 -36 94 -39 65 -82 138 -216 368 -137 235 -176 301 -203 345 -17 28 -57 97 -89 155 -79 140 -96 160 -164 196 -33 17 -102 55 -154 84 -100 56 -131 73 -245 135 -38 20 -74 41 -80 45 -5 4 -41 25 -80 45 -38 21 -88 48 -110 60 -22 12 -71 39 -110 60 -38 21 -74 41 -80 45 -9 7 -69 40 -205 113 -30 16 -59 33 -65 37 -5 4 -39 23 -75 42 -36 20 -92 50 -125 68 -33 18 -79 44 -103 57 -39 21 -120 32 -133 18z"/>
 </g>

</svg>