<!DOCTYPE svg PUBLIC "-//W3C//DTD SVG 20010904//EN" "http://www.w3.org/TR/2001/REC-SVG-20010904/DTD/svg10.dtd">
<svg version="1.0" xmlns="http://www.w3.org/2000/svg" width="837px" height="556px" viewBox="0 0 8370 5560" preserveAspectRatio="xMidYMid meet">
<g id="layer101" fill="#333333" stroke="none">
 <path d="M3490 4867 c-29 -10 -36 -17 -38 -44 -4 -38 -6 -38 66 -17 38 11 76 15 121 11 57 -4 69 -9 93 -36 61 -69 25 -129 -111 -185 -101 -42 -146 -82 -157 -141 -24 -127 65 -204 224 -192 42 3 89 10 104 16 25 9 26 12 15 41 -9 25 -16 30 -32 25 -129 -40 -213 -29 -236 32 -24 65 16 114 130 158 38 14 89 43 112 64 39 35 43 42 46 97 6 80 -17 120 -87 157 -45 23 -64 27 -134 26 -44 0 -97 -5 -116 -12z"/>
 <path d="M4040 4867 c-29 -10 -36 -17 -38 -44 -4 -38 -6 -38 66 -17 38 11 76 15 121 11 57 -4 69 -9 93 -36 61 -69 25 -129 -111 -185 -101 -42 -146 -82 -157 -141 -24 -127 65 -204 224 -192 42 3 89 10 104 16 25 9 26 12 15 41 -9 25 -16 30 -32 25 -129 -40 -213 -29 -236 32 -24 65 16 114 130 158 38 14 89 43 112 64 39 35 43 42 46 97 6 80 -17 120 -87 157 -45 23 -64 27 -134 26 -44 0 -97 -5 -116 -12z"/>
 <path d="M826 4848 c-3 -13 -36 -140 -72 -283 -35 -143 -67 -268 -70 -277 -5 -16 2 -18 59 -18 l63 0 43 183 c23 100 45 199 48 220 3 20 8 37 12 37 3 0 30 -99 60 -220 l54 -220 62 0 62 0 46 178 c25 97 49 196 53 220 7 43 24 69 24 35 0 -10 21 -111 47 -225 l47 -208 63 0 c35 0 63 3 63 6 0 4 -80 322 -141 557 l-10 37 -73 0 -73 0 -42 -158 c-22 -87 -46 -184 -52 -215 l-12 -57 -53 213 c-30 116 -54 213 -54 214 0 2 -33 3 -74 3 -68 0 -74 -2 -80 -22z"/>
 <path d="M1650 4570 l0 -300 175 0 175 0 0 50 0 50 -110 0 -110 0 0 70 0 70 105 0 105 0 0 50 0 50 -105 0 -105 0 0 80 0 80 110 0 110 0 0 50 0 50 -175 0 -175 0 0 -300z"/>
 <path d="M2210 4569 l0 -301 158 4 c173 3 215 15 256 71 43 59 15 183 -46 203 -20 6 -19 8 16 26 85 44 89 182 7 251 -46 39 -90 47 -248 47 l-143 0 0 -301z m286 180 c45 -37 34 -110 -18 -128 -17 -6 -55 -11 -84 -11 l-54 0 0 81 0 82 70 -5 c38 -3 77 -11 86 -19z m-34 -250 c41 -11 55 -38 44 -84 -7 -28 -54 -45 -123 -45 l-43 0 0 70 0 70 43 0 c23 0 59 -5 79 -11z"/>
 <path d="M2791 4862 c2 -6 56 -141 119 -301 l115 -291 31 0 31 0 113 288 c62 158 115 293 117 300 4 10 -4 13 -33 10 l-39 -3 -35 -92 -35 -93 -120 0 -120 0 -36 93 -35 92 -38 3 c-22 2 -37 -1 -35 -6z m328 -324 c-17 -46 -39 -105 -47 -131 l-16 -49 -22 64 c-12 35 -33 93 -47 131 l-26 67 94 0 94 0 -30 -82z"/>
 <path d="M4590 4570 l0 -300 170 0 170 0 0 30 0 30 -135 0 -135 0 0 95 0 95 125 0 125 0 0 30 0 30 -125 0 -125 0 0 115 0 115 135 0 135 0 0 30 0 30 -170 0 -170 0 0 -300z"/>
 <path d="M5150 4570 l0 -300 54 0 54 0 40 103 c21 56 63 166 93 244 29 78 56 139 59 137 3 -3 46 -112 96 -242 l92 -237 56 -3 56 -3 0 301 0 300 -41 0 -41 0 3 -255 c2 -140 4 -255 3 -255 0 0 -45 115 -100 255 -99 255 -99 255 -129 255 -30 0 -30 0 -125 -247 l-95 -248 -3 248 -2 247 -35 0 -35 0 0 -300z"/>
 <path d="M6000 4569 l0 -301 143 4 c119 2 148 6 181 24 99 52 98 194 -1 245 l-31 16 32 11 c133 48 122 238 -16 289 -19 6 -92 12 -170 12 l-138 1 0 -301z m274 227 c62 -26 84 -92 51 -156 -19 -37 -64 -50 -172 -50 l-83 0 0 110 0 110 85 0 c51 0 99 -6 119 -14z m13 -292 c23 -17 29 -30 31 -70 2 -43 -1 -53 -23 -74 -23 -22 -37 -25 -125 -28 l-100 -4 0 102 0 102 95 -4 c76 -3 100 -8 122 -24z"/>
 <path d="M6630 4570 l0 -300 35 0 35 0 0 270 0 270 135 0 135 0 0 30 0 30 -170 0 -170 0 0 -300z"/>
 <path d="M7250 4758 l0 -111 -84 -156 c-46 -86 -91 -171 -100 -188 l-17 -33 41 0 40 0 44 88 c25 48 60 115 78 149 l34 62 78 -150 78 -149 39 0 40 0 -52 98 c-29 53 -74 137 -101 186 l-48 89 0 114 0 113 -35 0 -35 0 0 -112z"/>
 <path d="M1884 2128 c-450 -738 -829 -1359 -842 -1380 l-23 -38 193 0 193 1 201 337 c967 1620 1097 1834 1109 1820 35 -36 285 -435 282 -449 -4 -13 -325 -549 -955 -1591 l-71 -118 192 0 192 0 664 1061 c365 583 667 1057 672 1052 4 -4 66 -107 137 -228 l129 -219 -50 -81 c-28 -44 -255 -408 -505 -810 -250 -401 -459 -736 -465 -742 -7 -10 30 -13 181 -13 l190 0 846 1314 c465 722 846 1316 846 1320 0 3 -86 5 -191 4 l-192 -3 -217 -338 c-119 -186 -221 -342 -226 -347 -6 -6 -102 145 -248 391 l-239 400 -159 -243 c-88 -134 -203 -310 -257 -391 l-98 -148 -233 391 c-127 214 -233 390 -234 390 -1 0 -371 -604 -822 -1342z"/>
 <path d="M6432 3332 c-20 -32 -327 -524 -682 -1095 -355 -570 -648 -1037 -651 -1037 -3 0 -118 177 -254 393 -137 215 -254 400 -260 409 -10 15 -23 1 -98 -107 l-87 -124 346 -561 c190 -308 349 -560 352 -560 5 1 1582 2519 1691 2701 l23 39 -171 0 -171 0 -38 -58z"/>
 </g>
<g id="layer102" fill="#5e5e5e" stroke="none">
 <path d="M1654 4570 c0 -168 2 -236 3 -152 2 83 2 221 0 305 -1 83 -3 15 -3 -153z"/>
 <path d="M2214 4570 c0 -168 2 -236 3 -152 2 83 2 221 0 305 -1 83 -3 15 -3 -153z"/>
 <path d="M4594 4570 c0 -168 2 -236 3 -152 2 83 2 221 0 305 -1 83 -3 15 -3 -153z"/>
 <path d="M4922 4840 c0 -19 2 -27 5 -17 2 9 2 25 0 35 -3 9 -5 1 -5 -18z"/>
 <path d="M5154 4570 c0 -168 2 -236 3 -152 2 83 2 221 0 305 -1 83 -3 15 -3 -153z"/>
 <path d="M5213 4605 c-1 -148 1 -263 5 -255 4 8 5 130 2 270 l-6 255 -1 -270z"/>
 <path d="M5674 4650 c0 -124 2 -174 3 -112 2 61 2 163 0 225 -1 61 -3 11 -3 -113z"/>
 <path d="M5744 4570 c0 -168 2 -236 3 -152 2 83 2 221 0 305 -1 83 -3 15 -3 -153z"/>
 <path d="M6004 4570 c0 -168 2 -236 3 -152 2 83 2 221 0 305 -1 83 -3 15 -3 -153z"/>
 <path d="M6634 4570 c0 -168 2 -236 3 -152 2 83 2 221 0 305 -1 83 -3 15 -3 -153z"/>
 <path d="M6962 4840 c0 -19 2 -27 5 -17 2 9 2 25 0 35 -3 9 -5 1 -5 -18z"/>
 <path d="M3451 4823 c-1 -25 3 -33 17 -33 11 0 13 3 6 8 -7 4 -14 18 -17 32 -4 21 -4 20 -6 -7z"/>
 <path d="M4001 4823 c-1 -25 3 -33 17 -33 11 0 13 3 6 8 -7 4 -14 18 -17 32 -4 21 -4 20 -6 -7z"/>
 <path d="M905 4737 c-4 -10 -5 -21 -1 -24 10 -10 18 4 13 24 -4 17 -4 17 -12 0z"/>
 <path d="M1250 4729 c0 -11 5 -17 10 -14 6 3 10 13 10 21 0 8 -4 14 -10 14 -5 0 -10 -9 -10 -21z"/>
 <path d="M2653 4695 c0 -27 2 -38 4 -22 2 15 2 37 0 50 -2 12 -4 0 -4 -28z"/>
 <path d="M6413 4700 c0 -25 2 -35 4 -22 2 12 2 32 0 45 -2 12 -4 2 -4 -23z"/>
 <path d="M1983 4560 c0 -30 2 -43 4 -27 2 15 2 39 0 55 -2 15 -4 2 -4 -28z"/>
 <path d="M3504 4528 l-29 -33 33 29 c30 28 37 36 29 36 -2 0 -16 -15 -33 -32z"/>
 <path d="M4054 4528 l-29 -33 33 29 c17 17 32 31 32 33 0 8 -8 1 -36 -29z"/>
 <path d="M7235 4490 c-9 -16 -13 -30 -11 -30 3 0 12 14 21 30 9 17 13 30 11 30 -3 0 -12 -13 -21 -30z"/>
 <path d="M7325 4490 c9 -16 18 -30 21 -30 2 0 -2 14 -11 30 -9 17 -18 30 -21 30 -2 0 2 -13 11 -30z"/>
 <path d="M3463 4415 c0 -27 2 -38 4 -22 2 15 2 37 0 50 -2 12 -4 0 -4 -28z"/>
 <path d="M4013 4415 c0 -27 2 -38 4 -22 2 15 2 37 0 50 -2 12 -4 0 -4 -28z"/>
 <path d="M6322 4430 c0 -19 2 -27 5 -17 2 9 2 25 0 35 -3 9 -5 1 -5 -18z"/>
 <path d="M6393 4415 c0 -22 2 -30 4 -17 2 12 2 30 0 40 -3 9 -5 -1 -4 -23z"/>
 <path d="M7105 4380 c-9 -16 -13 -30 -11 -30 3 0 12 14 21 30 9 17 13 30 11 30 -3 0 -12 -13 -21 -30z"/>
 <path d="M4922 4300 c0 -19 2 -27 5 -17 2 9 2 25 0 35 -3 9 -5 1 -5 -18z"/>
 <path d="M7425 4300 c9 -16 18 -30 21 -30 2 0 -2 14 -11 30 -9 17 -18 30 -21 30 -2 0 2 -13 11 -30z"/>
 <path d="M1884 2128 c-450 -738 -829 -1359 -842 -1380 l-23 -38 193 0 193 1 201 337 c967 1620 1097 1834 1109 1820 35 -36 285 -435 282 -449 -4 -13 -325 -549 -955 -1591 l-71 -118 192 0 192 0 664 1061 c365 583 667 1057 672 1052 4 -4 66 -107 137 -228 l129 -219 -50 -81 c-28 -44 -255 -408 -505 -810 -250 -401 -459 -736 -465 -742 -7 -10 30 -13 181 -13 l190 0 846 1314 c465 722 846 1316 846 1320 0 3 -86 5 -191 4 l-192 -3 -217 -338 c-119 -186 -221 -342 -226 -347 -6 -6 -102 145 -248 391 l-239 400 -159 -243 c-88 -134 -203 -310 -257 -391 l-98 -148 -233 391 c-127 214 -233 390 -234 390 -1 0 -371 -604 -822 -1342z"/>
 <path d="M6432 3332 c-20 -32 -327 -524 -682 -1095 -355 -570 -648 -1037 -651 -1037 -3 0 -118 177 -254 393 -137 215 -254 400 -260 409 -10 15 -23 1 -98 -107 l-87 -124 346 -561 c190 -308 349 -560 352 -560 5 1 1582 2519 1691 2701 l23 39 -171 0 -171 0 -38 -58z"/>
 </g>
<g id="layer103" fill="#5e3092" stroke="none">
 <path d="M1654 4570 c0 -168 2 -236 3 -152 2 83 2 221 0 305 -1 83 -3 15 -3 -153z"/>
 <path d="M2214 4570 c0 -168 2 -236 3 -152 2 83 2 221 0 305 -1 83 -3 15 -3 -153z"/>
 <path d="M4922 4840 c0 -19 2 -27 5 -17 2 9 2 25 0 35 -3 9 -5 1 -5 -18z"/>
 <path d="M5212 4623 c-1 -139 1 -253 6 -253 4 0 6 75 4 167 -4 310 -8 340 -10 86z"/>
 <path d="M5674 4650 c0 -124 2 -174 3 -112 2 61 2 163 0 225 -1 61 -3 11 -3 -113z"/>
 <path d="M5744 4570 c0 -168 2 -236 3 -152 2 83 2 221 0 305 -1 83 -3 15 -3 -153z"/>
 <path d="M6962 4840 c0 -19 2 -27 5 -17 2 9 2 25 0 35 -3 9 -5 1 -5 -18z"/>
 <path d="M3452 4820 c0 -19 2 -27 5 -17 2 9 2 25 0 35 -3 9 -5 1 -5 -18z"/>
 <path d="M4002 4820 c0 -19 2 -27 5 -17 2 9 2 25 0 35 -3 9 -5 1 -5 -18z"/>
 <path d="M1983 4560 c0 -30 2 -43 4 -27 2 15 2 39 0 55 -2 15 -4 2 -4 -28z"/>
 <path d="M4922 4300 c0 -19 2 -27 5 -17 2 9 2 25 0 35 -3 9 -5 1 -5 -18z"/>
 <path d="M1884 2128 c-450 -738 -829 -1359 -842 -1380 l-23 -38 193 0 193 1 201 337 c967 1620 1097 1834 1109 1820 35 -36 285 -435 282 -449 -4 -13 -325 -549 -955 -1591 l-71 -118 192 0 192 0 664 1061 c365 583 667 1057 672 1052 4 -4 66 -107 137 -228 l129 -219 -50 -81 c-28 -44 -255 -408 -505 -810 -250 -401 -459 -736 -465 -742 -7 -10 30 -13 181 -13 l190 0 846 1314 c465 722 846 1316 846 1320 0 3 -86 5 -191 4 l-192 -3 -217 -338 c-119 -186 -221 -342 -226 -347 -6 -6 -102 145 -248 391 l-239 400 -159 -243 c-88 -134 -203 -310 -257 -391 l-98 -148 -233 391 c-127 214 -233 390 -234 390 -1 0 -371 -604 -822 -1342z"/>
 <path d="M6432 3332 c-20 -32 -327 -524 -682 -1095 -355 -570 -648 -1037 -651 -1037 -3 0 -118 177 -254 393 -137 215 -254 400 -260 409 -10 15 -23 1 -98 -107 l-87 -124 346 -561 c190 -308 349 -560 352 -560 5 1 1582 2519 1691 2701 l23 39 -171 0 -171 0 -38 -58z"/>
 </g>
<g id="layer104" fill="#24a7d1" stroke="none">
 <path d="M1654 4570 c0 -168 2 -236 3 -152 2 83 2 221 0 305 -1 83 -3 15 -3 -153z"/>
 <path d="M2214 4570 c0 -168 2 -236 3 -152 2 83 2 221 0 305 -1 83 -3 15 -3 -153z"/>
 <path d="M4922 4840 c0 -19 2 -27 5 -17 2 9 2 25 0 35 -3 9 -5 1 -5 -18z"/>
 <path d="M5212 4623 c-1 -139 1 -253 6 -253 4 0 6 75 4 167 -4 310 -8 340 -10 86z"/>
 <path d="M5674 4650 c0 -124 2 -174 3 -112 2 61 2 163 0 225 -1 61 -3 11 -3 -113z"/>
 <path d="M5744 4570 c0 -168 2 -236 3 -152 2 83 2 221 0 305 -1 83 -3 15 -3 -153z"/>
 <path d="M6962 4840 c0 -19 2 -27 5 -17 2 9 2 25 0 35 -3 9 -5 1 -5 -18z"/>
 <path d="M3452 4820 c0 -19 2 -27 5 -17 2 9 2 25 0 35 -3 9 -5 1 -5 -18z"/>
 <path d="M4002 4820 c0 -19 2 -27 5 -17 2 9 2 25 0 35 -3 9 -5 1 -5 -18z"/>
 <path d="M1983 4560 c0 -30 2 -43 4 -27 2 15 2 39 0 55 -2 15 -4 2 -4 -28z"/>
 <path d="M4922 4300 c0 -19 2 -27 5 -17 2 9 2 25 0 35 -3 9 -5 1 -5 -18z"/>
 <path d="M6432 3332 c-20 -32 -327 -524 -682 -1095 -355 -570 -648 -1037 -651 -1037 -3 0 -118 177 -254 393 -137 215 -254 400 -260 409 -10 15 -23 1 -98 -107 l-87 -124 346 -561 c190 -308 349 -560 352 -560 5 1 1582 2519 1691 2701 l23 39 -171 0 -171 0 -38 -58z"/>
 </g>
<g id="layer105" fill="#4c8bd5" stroke="none">
 <path d="M1654 4570 c0 -168 2 -236 3 -152 2 83 2 221 0 305 -1 83 -3 15 -3 -153z"/>
 <path d="M2214 4570 c0 -168 2 -236 3 -152 2 83 2 221 0 305 -1 83 -3 15 -3 -153z"/>
 <path d="M4922 4840 c0 -19 2 -27 5 -17 2 9 2 25 0 35 -3 9 -5 1 -5 -18z"/>
 <path d="M5212 4623 c-1 -139 1 -253 6 -253 4 0 6 75 4 167 -4 310 -8 340 -10 86z"/>
 <path d="M5674 4650 c0 -124 2 -174 3 -112 2 61 2 163 0 225 -1 61 -3 11 -3 -113z"/>
 <path d="M5744 4570 c0 -168 2 -236 3 -152 2 83 2 221 0 305 -1 83 -3 15 -3 -153z"/>
 <path d="M6962 4840 c0 -19 2 -27 5 -17 2 9 2 25 0 35 -3 9 -5 1 -5 -18z"/>
 <path d="M3452 4820 c0 -19 2 -27 5 -17 2 9 2 25 0 35 -3 9 -5 1 -5 -18z"/>
 <path d="M4002 4820 c0 -19 2 -27 5 -17 2 9 2 25 0 35 -3 9 -5 1 -5 -18z"/>
 <path d="M1983 4560 c0 -30 2 -43 4 -27 2 15 2 39 0 55 -2 15 -4 2 -4 -28z"/>
 <path d="M4922 4300 c0 -19 2 -27 5 -17 2 9 2 25 0 35 -3 9 -5 1 -5 -18z"/>
 <path d="M5444 1745 c-187 -300 -342 -545 -345 -545 -3 0 -118 177 -254 393 -137 215 -254 400 -260 409 -10 15 -23 1 -98 -107 l-87 -124 346 -561 c190 -308 349 -560 352 -560 4 0 165 254 358 564 193 310 344 561 335 559 -14 -3 -16 6 -14 69 7 212 7 375 0 365 -5 -8 -7 -4 -4 8 2 11 9 19 16 17 8 -2 9 3 3 15 -5 10 -7 24 -5 31 3 6 3 12 0 12 -2 0 -157 -245 -343 -545z"/>
 </g>
<g id="layer106" fill="#6a71d7" stroke="none">
 <path d="M1654 4570 c0 -168 2 -236 3 -152 2 83 2 221 0 305 -1 83 -3 15 -3 -153z"/>
 <path d="M2214 4570 c0 -168 2 -236 3 -152 2 83 2 221 0 305 -1 83 -3 15 -3 -153z"/>
 <path d="M4922 4840 c0 -19 2 -27 5 -17 2 9 2 25 0 35 -3 9 -5 1 -5 -18z"/>
 <path d="M5212 4623 c-1 -139 1 -253 6 -253 4 0 6 75 4 167 -4 310 -8 340 -10 86z"/>
 <path d="M5674 4650 c0 -124 2 -174 3 -112 2 61 2 163 0 225 -1 61 -3 11 -3 -113z"/>
 <path d="M5744 4570 c0 -168 2 -236 3 -152 2 83 2 221 0 305 -1 83 -3 15 -3 -153z"/>
 <path d="M6962 4840 c0 -19 2 -27 5 -17 2 9 2 25 0 35 -3 9 -5 1 -5 -18z"/>
 <path d="M3452 4820 c0 -19 2 -27 5 -17 2 9 2 25 0 35 -3 9 -5 1 -5 -18z"/>
 <path d="M4002 4820 c0 -19 2 -27 5 -17 2 9 2 25 0 35 -3 9 -5 1 -5 -18z"/>
 <path d="M1983 4560 c0 -30 2 -43 4 -27 2 15 2 39 0 55 -2 15 -4 2 -4 -28z"/>
 <path d="M4922 4300 c0 -19 2 -27 5 -17 2 9 2 25 0 35 -3 9 -5 1 -5 -18z"/>
 <path d="M4487 1895 l-87 -124 346 -561 c190 -308 349 -560 353 -560 4 0 16 17 27 37 10 21 21 39 24 40 3 2 4 42 3 90 -7 247 -7 360 -1 350 12 -19 9 22 -3 45 -9 16 -8 19 2 13 9 -6 11 -3 6 8 -3 9 -2 19 4 22 5 4 7 11 3 16 -3 5 -10 7 -15 3 -5 -3 -7 -10 -4 -15 4 -5 1 -9 -4 -9 -6 0 -11 -5 -11 -11 0 -17 -30 -43 -39 -33 -5 5 -122 189 -261 409 -139 220 -254 401 -255 402 -1 2 -40 -53 -88 -122z"/>
 </g>
<g id="layer107" fill="#9b999e" stroke="none">
 <path d="M1654 4570 c0 -168 2 -236 3 -152 2 83 2 221 0 305 -1 83 -3 15 -3 -153z"/>
 <path d="M2214 4570 c0 -168 2 -236 3 -152 2 83 2 221 0 305 -1 83 -3 15 -3 -153z"/>
 <path d="M4922 4840 c0 -19 2 -27 5 -17 2 9 2 25 0 35 -3 9 -5 1 -5 -18z"/>
 <path d="M5212 4623 c-1 -139 1 -253 6 -253 4 0 6 75 4 167 -4 310 -8 340 -10 86z"/>
 <path d="M5674 4650 c0 -124 2 -174 3 -112 2 61 2 163 0 225 -1 61 -3 11 -3 -113z"/>
 <path d="M5744 4570 c0 -168 2 -236 3 -152 2 83 2 221 0 305 -1 83 -3 15 -3 -153z"/>
 <path d="M6962 4840 c0 -19 2 -27 5 -17 2 9 2 25 0 35 -3 9 -5 1 -5 -18z"/>
 <path d="M3452 4820 c0 -19 2 -27 5 -17 2 9 2 25 0 35 -3 9 -5 1 -5 -18z"/>
 <path d="M4002 4820 c0 -19 2 -27 5 -17 2 9 2 25 0 35 -3 9 -5 1 -5 -18z"/>
 <path d="M1983 4560 c0 -30 2 -43 4 -27 2 15 2 39 0 55 -2 15 -4 2 -4 -28z"/>
 <path d="M4922 4300 c0 -19 2 -27 5 -17 2 9 2 25 0 35 -3 9 -5 1 -5 -18z"/>
 </g>

</svg>