<!DOCTYPE svg PUBLIC "-//W3C//DTD SVG 20010904//EN" "http://www.w3.org/TR/2001/REC-SVG-20010904/DTD/svg10.dtd">
<svg version="1.0" xmlns="http://www.w3.org/2000/svg" width="512px" height="512px" viewBox="0 0 5120 5120" preserveAspectRatio="xMidYMid meet">
<g id="layer101" fill="#3d6cb4" stroke="none">
 <path d="M3355 4446 c-42 -19 -94 -76 -105 -117 -6 -18 -10 -154 -10 -301 l0 -268 -400 0 -400 0 0 73 c0 172 71 291 189 316 29 6 59 11 66 11 8 0 15 9 15 20 0 20 -5 20 -662 18 -567 -3 -663 -5 -663 -17 0 -10 23 -20 65 -31 109 -26 155 -72 185 -185 8 -33 15 -92 15 -132 l0 -73 -547 0 c-330 0 -574 -4 -613 -11 -128 -20 -241 -93 -310 -201 -75 -115 -71 -48 -68 -1318 l3 -1135 31 -65 c62 -131 192 -234 328 -259 41 -8 527 -11 1580 -11 1661 0 1589 -2 1699 57 112 62 203 188 226 317 7 37 11 215 11 458 l0 398 415 0 c453 0 458 1 518 58 61 57 57 -16 57 1177 0 991 -2 1099 -16 1128 -23 45 -44 66 -86 88 -36 18 -70 19 -765 19 -587 -1 -734 -3 -758 -14z m1511 -52 c15 -11 37 -33 48 -48 21 -27 21 -34 24 -1102 2 -1047 2 -1077 -17 -1119 -12 -27 -33 -53 -53 -65 -32 -20 -48 -20 -751 -20 -778 0 -744 -2 -797 55 l-25 27 -3 1096 c-2 1086 -2 1097 18 1130 12 19 38 41 63 53 40 18 69 19 754 16 701 -2 712 -2 739 -23z m-2369 -254 c-33 -26 -84 -128 -93 -186 l-6 -44 -353 0 -352 0 -7 46 c-8 60 -36 121 -76 167 l-32 37 472 0 473 0 -26 -20z m743 -715 l0 -285 -1361 0 c-1040 0 -1371 -3 -1403 -12 -55 -16 -138 -99 -154 -154 -9 -31 -12 -261 -12 -926 l0 -884 26 -53 c31 -61 96 -114 161 -130 29 -8 522 -11 1551 -11 1669 0 1569 -4 1649 65 23 19 52 56 65 83 23 47 23 50 26 460 l3 412 75 0 75 0 -3 -437 -3 -438 -32 -67 c-41 -88 -113 -160 -201 -201 l-67 -32 -1590 0 -1590 0 -65 32 c-116 57 -202 166 -229 291 -16 75 -16 2169 0 2244 32 151 149 273 299 314 34 10 366 13 1413 13 l1367 1 0 -285z m0 -802 c0 -532 0 -528 69 -586 47 -39 90 -47 269 -47 l162 0 0 -335 0 -335 -1695 0 -1696 0 3 813 3 812 24 42 c27 48 84 92 133 103 18 4 639 8 1381 9 l1347 1 0 -477z"/>
 <path d="M4111 4314 c-27 -22 -31 -32 -31 -74 0 -42 4 -52 31 -74 52 -44 125 -30 154 31 21 44 12 85 -27 118 -39 33 -87 33 -127 -1z"/>
 <path d="M3430 4057 c-13 -7 -35 -28 -47 -46 l-23 -34 0 -876 c0 -851 1 -877 20 -908 40 -66 10 -64 744 -61 l665 3 30 29 c17 17 36 46 41 65 6 23 10 354 10 878 0 935 2 901 -65 943 -32 20 -48 20 -691 20 -507 0 -665 -3 -684 -13z m1340 -42 c16 -8 34 -24 40 -34 7 -13 10 -308 10 -876 0 -908 0 -901 -45 -919 -9 -3 -310 -6 -669 -6 l-653 0 -24 26 -24 26 0 868 c0 854 0 868 20 890 11 12 29 26 40 31 11 4 303 8 648 8 541 1 632 -1 657 -14z"/>
 <path d="M3583 3654 c-3 -8 -1 -20 4 -25 5 -5 156 -8 379 -7 361 3 369 3 369 23 0 20 -8 20 -373 23 -332 2 -373 1 -379 -14z"/>
 <path d="M3583 3514 c-3 -8 -1 -20 4 -25 5 -5 183 -8 449 -7 431 3 439 3 439 23 0 20 -8 20 -443 23 -395 2 -443 1 -449 -14z"/>
 <path d="M3545 3258 c-3 -7 -4 -222 -3 -478 l3 -465 575 0 575 0 0 475 0 475 -573 3 c-453 2 -574 0 -577 -10z"/>
 <path d="M1997 3576 c-69 -25 -97 -66 -97 -143 0 -78 41 -127 123 -147 71 -17 159 44 173 121 21 111 -93 208 -199 169z"/>
 <path d="M572 2588 l3 -343 335 0 335 0 0 340 0 340 -338 3 -337 2 2 -342z"/>
 <path d="M1442 2588 l3 -343 335 0 335 0 0 340 0 340 -338 3 -337 2 2 -342z m638 -3 l0 -295 -300 0 -300 0 0 295 0 295 300 0 300 0 0 -295z"/>
 <path d="M2312 2588 l3 -343 335 0 335 0 3 343 2 342 -340 0 -340 0 2 -342z m638 -3 l0 -295 -300 0 -300 0 0 295 0 295 300 0 300 0 0 -295z"/>
 <path d="M575 2017 c-3 -7 -4 -125 -3 -262 l3 -250 655 0 655 0 0 260 0 260 -653 3 c-522 2 -654 0 -657 -11z m1265 -252 l0 -215 -615 0 -615 0 0 215 0 215 615 0 615 0 0 -215z"/>
 <path d="M2057 1953 c-4 -3 -7 -12 -7 -20 0 -11 99 -13 555 -13 548 0 555 0 555 20 0 20 -7 20 -548 20 -302 0 -552 -3 -555 -7z"/>
 <path d="M2053 1804 c-3 -9 0 -20 8 -25 8 -5 289 -8 644 -6 l630 2 3 23 3 22 -641 0 c-578 0 -641 -2 -647 -16z"/>
 <path d="M2054 1596 c-3 -8 -3 -20 1 -26 4 -7 184 -10 556 -10 l550 0 -3 23 -3 22 -548 3 c-473 2 -548 0 -553 -12z"/>
 <path d="M4440 1626 l0 -56 -55 0 c-48 0 -55 -2 -55 -20 0 -18 7 -20 55 -20 l55 0 0 -56 c0 -52 1 -55 23 -52 19 3 22 10 25 55 l3 52 52 3 c38 2 52 7 52 18 0 11 -14 16 -52 18 l-52 3 -3 52 c-3 45 -6 52 -25 55 -22 3 -23 0 -23 -52z"/>
 <path d="M4807 1043 c-4 -3 -7 -46 -7 -95 l0 -88 -90 0 c-83 0 -90 -1 -90 -20 0 -19 7 -20 90 -20 l89 0 3 -92 c3 -85 5 -93 23 -93 18 0 20 8 23 93 l3 92 89 0 c83 0 90 1 90 20 0 19 -7 20 -90 20 l-90 0 0 83 c0 88 -17 127 -43 100z"/>
 </g>

</svg>